<svg xmlns="http://www.w3.org/2000/svg" xmlns:xlink="http://www.w3.org/1999/xlink" width="1600" zoomAndPan="magnify" viewBox="0 0 1200 675.000002" height="900" preserveAspectRatio="xMidYMid meet" version="1.0"><defs><clipPath id="id1"><path d="M 859 175.414062 L 1059 175.414062 L 1059 253 L 859 253 Z M 859 175.414062 " clip-rule="nonzero"/></clipPath><clipPath id="id2"><path d="M 859 456 L 1059 456 L 1059 539.375 L 859 539.375 Z M 859 456 " clip-rule="nonzero"/></clipPath><clipPath id="id3"><path d="M 811.101562 263 L 1106.910156 263 L 1106.910156 446 L 811.101562 446 Z M 811.101562 263 " clip-rule="nonzero"/></clipPath></defs><path fill="#5046dc" d="M 973.226562 516.621094 C 976.355469 516.621094 978.917969 514.0625 978.917969 510.9375 C 978.917969 507.808594 976.355469 505.25 973.226562 505.25 L 944.785156 505.25 C 941.65625 505.25 939.097656 507.808594 939.097656 510.9375 C 939.097656 514.0625 941.65625 516.621094 944.785156 516.621094 Z M 973.226562 516.621094 " fill-opacity="1" fill-rule="nonzero"/><path fill="#5046dc" d="M 964.695312 203.855469 C 964.695312 204.226562 964.660156 204.597656 964.585938 204.964844 C 964.511719 205.332031 964.40625 205.6875 964.261719 206.03125 C 964.117188 206.375 963.945312 206.703125 963.734375 207.015625 C 963.527344 207.324219 963.292969 207.613281 963.027344 207.875 C 962.765625 208.140625 962.476562 208.375 962.167969 208.582031 C 961.855469 208.789062 961.527344 208.964844 961.183594 209.109375 C 960.839844 209.25 960.480469 209.359375 960.117188 209.433594 C 959.75 209.503906 959.378906 209.542969 959.007812 209.542969 C 958.632812 209.542969 958.261719 209.503906 957.894531 209.433594 C 957.53125 209.359375 957.175781 209.25 956.828125 209.109375 C 956.484375 208.964844 956.15625 208.789062 955.84375 208.582031 C 955.535156 208.375 955.246094 208.140625 954.984375 207.875 C 954.71875 207.613281 954.484375 207.324219 954.277344 207.015625 C 954.070312 206.703125 953.894531 206.375 953.75 206.03125 C 953.609375 205.6875 953.5 205.332031 953.425781 204.964844 C 953.355469 204.597656 953.316406 204.226562 953.316406 203.855469 C 953.316406 203.480469 953.355469 203.109375 953.425781 202.746094 C 953.5 202.378906 953.609375 202.023438 953.75 201.679688 C 953.894531 201.332031 954.070312 201.003906 954.277344 200.695312 C 954.484375 200.382812 954.71875 200.097656 954.984375 199.832031 C 955.246094 199.570312 955.535156 199.332031 955.84375 199.125 C 956.15625 198.917969 956.484375 198.742188 956.828125 198.601562 C 957.175781 198.457031 957.53125 198.351562 957.894531 198.277344 C 958.261719 198.203125 958.632812 198.167969 959.007812 198.167969 C 959.378906 198.167969 959.75 198.203125 960.117188 198.277344 C 960.480469 198.351562 960.839844 198.457031 961.183594 198.601562 C 961.527344 198.742188 961.855469 198.917969 962.167969 199.125 C 962.476562 199.332031 962.765625 199.570312 963.027344 199.832031 C 963.292969 200.097656 963.527344 200.382812 963.734375 200.695312 C 963.945312 201.003906 964.117188 201.332031 964.261719 201.679688 C 964.40625 202.023438 964.511719 202.378906 964.585938 202.746094 C 964.660156 203.109375 964.695312 203.480469 964.695312 203.855469 Z M 964.695312 203.855469 " fill-opacity="1" fill-rule="nonzero"/><g clip-path="url(#id1)"><path fill="#5046dc" d="M 1058.558594 252.191406 L 1058.558594 198.167969 C 1058.558594 185.65625 1048.320312 175.421875 1035.804688 175.421875 L 882.207031 175.421875 C 869.695312 175.421875 859.453125 185.65625 859.453125 198.167969 L 859.453125 252.191406 L 870.832031 252.191406 L 870.832031 198.167969 C 870.832031 191.914062 875.953125 186.792969 882.207031 186.792969 L 1035.804688 186.792969 C 1042.0625 186.792969 1047.179688 191.914062 1047.179688 198.167969 L 1047.179688 252.191406 Z M 1058.558594 252.191406 " fill-opacity="1" fill-rule="nonzero"/></g><g clip-path="url(#id2)"><path fill="#5046dc" d="M 859.453125 456.914062 L 859.453125 516.621094 C 859.453125 529.132812 869.695312 539.371094 882.207031 539.371094 L 1035.804688 539.371094 C 1048.320312 539.371094 1058.558594 529.132812 1058.558594 516.621094 L 1058.558594 456.914062 L 1047.179688 456.914062 L 1047.179688 516.621094 C 1047.179688 522.878906 1042.0625 527.996094 1035.804688 527.996094 L 882.207031 527.996094 C 875.953125 527.996094 870.832031 522.878906 870.832031 516.621094 L 870.832031 456.914062 Z M 859.453125 456.914062 " fill-opacity="1" fill-rule="nonzero"/></g><g clip-path="url(#id3)"><path fill="#5046dc" d="M 811.101562 280.625 L 811.101562 428.480469 C 811.101562 437.863281 818.78125 445.539062 828.167969 445.539062 L 1089.847656 445.539062 C 1099.230469 445.539062 1106.910156 437.863281 1106.910156 428.480469 L 1106.910156 280.625 C 1106.910156 271.242188 1099.230469 263.566406 1089.847656 263.566406 L 828.167969 263.566406 C 818.78125 263.566406 811.101562 271.242188 811.101562 280.625 Z M 1095.535156 280.625 L 1095.535156 428.480469 C 1095.535156 431.605469 1092.976562 434.164062 1089.847656 434.164062 L 828.167969 434.164062 C 825.039062 434.164062 822.476562 431.605469 822.476562 428.480469 L 822.476562 280.625 C 822.476562 277.496094 825.039062 274.9375 828.167969 274.9375 L 1089.847656 274.9375 C 1092.976562 274.9375 1095.535156 277.496094 1095.535156 280.625 Z M 1095.535156 280.625 " fill-opacity="1" fill-rule="nonzero"/></g><path fill="#5046dc" d="M 845.230469 343.179688 L 896.429688 343.179688 C 902.6875 343.179688 907.808594 338.058594 907.808594 331.804688 L 907.808594 297.683594 C 907.808594 291.429688 902.6875 286.3125 896.429688 286.3125 L 845.230469 286.3125 C 838.976562 286.3125 833.855469 291.429688 833.855469 297.683594 L 833.855469 331.804688 C 833.855469 338.058594 838.976562 343.179688 845.230469 343.179688 Z M 876.519531 297.683594 L 896.429688 297.683594 L 896.429688 309.058594 L 876.519531 309.058594 Z M 876.519531 320.433594 L 896.429688 320.433594 L 896.429688 331.804688 L 876.519531 331.804688 Z M 845.230469 297.683594 L 865.144531 297.683594 L 865.144531 309.058594 L 845.230469 309.058594 Z M 845.230469 320.433594 L 865.144531 320.433594 L 865.144531 331.804688 L 845.230469 331.804688 Z M 845.230469 320.433594 " fill-opacity="1" fill-rule="nonzero"/><path fill="#5046dc" d="M 1015.894531 422.792969 C 1053.4375 422.792969 1084.15625 392.082031 1084.15625 354.550781 C 1084.15625 317.019531 1053.4375 286.3125 1015.894531 286.3125 C 978.347656 286.3125 947.628906 317.019531 947.628906 354.550781 C 947.628906 392.082031 978.347656 422.792969 1015.894531 422.792969 Z M 1015.894531 297.683594 C 1047.179688 297.683594 1072.78125 323.273438 1072.78125 354.550781 C 1072.78125 385.828125 1047.179688 411.417969 1015.894531 411.417969 C 984.605469 411.417969 959.007812 385.828125 959.007812 354.550781 C 959.007812 323.273438 984.605469 297.683594 1015.894531 297.683594 Z M 1015.894531 297.683594 " fill-opacity="1" fill-rule="nonzero"/><path fill="#5046dc" d="M 1013.902344 358.25 C 1019.023438 359.667969 1024.140625 361.089844 1026.132812 364.21875 C 1027.554688 366.492188 1027.554688 369.054688 1026.417969 371.042969 C 1023.855469 374.738281 1017.316406 375.59375 1012.480469 374.738281 C 1010.488281 374.457031 1008.496094 373.601562 1006.792969 372.179688 C 1004.230469 370.191406 1000.816406 370.757812 998.828125 373.316406 C 996.835938 375.875 997.40625 379.289062 999.964844 381.277344 C 1003.09375 383.554688 1006.792969 385.261719 1010.488281 385.828125 C 1010.488281 385.828125 1010.488281 385.828125 1010.773438 385.828125 L 1010.773438 391.515625 C 1010.773438 394.644531 1013.332031 397.203125 1016.460938 397.203125 C 1019.589844 397.203125 1022.152344 394.644531 1022.152344 391.515625 L 1022.152344 385.828125 C 1027.554688 384.976562 1032.675781 382.417969 1036.085938 377.582031 C 1040.070312 371.894531 1040.070312 364.21875 1036.085938 357.964844 C 1031.820312 351.140625 1024.140625 349.148438 1017.316406 347.160156 C 1010.488281 345.453125 1006.507812 344.03125 1005.085938 340.335938 C 1003.945312 336.921875 1007.644531 334.363281 1009.636719 333.511719 C 1014.1875 331.804688 1020.160156 332.375 1024.710938 334.933594 C 1027.269531 336.640625 1030.96875 335.785156 1032.390625 332.941406 C 1033.8125 330.097656 1033.242188 326.6875 1030.398438 325.265625 C 1028.40625 324.128906 1026.417969 323.273438 1024.425781 322.421875 L 1024.425781 317.589844 C 1024.425781 314.460938 1021.867188 311.902344 1018.738281 311.902344 C 1015.609375 311.902344 1013.046875 314.460938 1013.046875 317.589844 L 1013.046875 321.570312 C 1010.488281 321.851562 1007.929688 322.421875 1005.367188 323.273438 C 995.984375 326.972656 991.429688 335.785156 994.277344 344.316406 C 997.121094 353.699219 1006.507812 356.257812 1013.902344 358.25 Z M 1013.902344 358.25 " fill-opacity="1" fill-rule="nonzero"/><path fill="#5046dc" d="M 842.386719 365.925781 L 876.519531 365.925781 C 879.648438 365.925781 882.207031 363.367188 882.207031 360.238281 C 882.207031 357.109375 879.648438 354.550781 876.519531 354.550781 L 842.386719 354.550781 C 839.257812 354.550781 836.699219 357.109375 836.699219 360.238281 C 836.699219 363.367188 839.257812 365.925781 842.386719 365.925781 Z M 842.386719 365.925781 " fill-opacity="1" fill-rule="nonzero"/><path fill="#5046dc" d="M 842.386719 388.671875 L 893.585938 388.671875 C 896.714844 388.671875 899.273438 386.113281 899.273438 382.984375 C 899.273438 379.859375 896.714844 377.296875 893.585938 377.296875 L 842.386719 377.296875 C 839.257812 377.296875 836.699219 379.859375 836.699219 382.984375 C 836.699219 386.113281 839.257812 388.671875 842.386719 388.671875 Z M 842.386719 388.671875 " fill-opacity="1" fill-rule="nonzero"/><path fill="#5046dc" d="M 836.699219 405.730469 C 836.699219 408.859375 839.257812 411.417969 842.386719 411.417969 L 922.03125 411.417969 C 925.160156 411.417969 927.71875 408.859375 927.71875 405.730469 C 927.71875 402.605469 925.160156 400.046875 922.03125 400.046875 L 842.386719 400.046875 C 839.257812 400.046875 836.699219 402.605469 836.699219 405.730469 Z M 836.699219 405.730469 " fill-opacity="1" fill-rule="nonzero"/></svg>