<svg xmlns="http://www.w3.org/2000/svg" xmlns:xlink="http://www.w3.org/1999/xlink" width="900" zoomAndPan="magnify" viewBox="0 0 675 1199.999942" height="1600" preserveAspectRatio="xMidYMid meet" version="1.0"><defs><clipPath id="id1"><path d="M 164 274.226562 L 522 274.226562 L 522 412 L 164 412 Z M 164 274.226562 " clip-rule="nonzero"/></clipPath><clipPath id="id2"><path d="M 164 778 L 522 778 L 522 925.976562 L 164 925.976562 Z M 164 778 " clip-rule="nonzero"/></clipPath><clipPath id="id3"><path d="M 78.117188 432 L 607.617188 432 L 607.617188 758 L 78.117188 758 Z M 78.117188 432 " clip-rule="nonzero"/></clipPath></defs><path fill="#5046dc" d="M 368.324219 885.238281 C 373.925781 885.238281 378.507812 880.65625 378.507812 875.054688 C 378.507812 869.457031 373.925781 864.871094 368.324219 864.871094 L 317.410156 864.871094 C 311.8125 864.871094 307.230469 869.457031 307.230469 875.054688 C 307.230469 880.65625 311.8125 885.238281 317.410156 885.238281 Z M 368.324219 885.238281 " fill-opacity="1" fill-rule="nonzero"/><path fill="#5046dc" d="M 353.050781 325.148438 C 353.050781 325.816406 352.984375 326.476562 352.855469 327.132812 C 352.726562 327.789062 352.53125 328.425781 352.277344 329.042969 C 352.019531 329.660156 351.707031 330.25 351.335938 330.804688 C 350.964844 331.359375 350.542969 331.875 350.066406 332.347656 C 349.59375 332.820312 349.082031 333.242188 348.523438 333.613281 C 347.96875 333.984375 347.382812 334.300781 346.765625 334.554688 C 346.148438 334.8125 345.511719 335.003906 344.855469 335.132812 C 344.199219 335.265625 343.535156 335.332031 342.867188 335.332031 C 342.199219 335.332031 341.539062 335.265625 340.882812 335.132812 C 340.226562 335.003906 339.589844 334.8125 338.972656 334.554688 C 338.355469 334.300781 337.765625 333.984375 337.210938 333.613281 C 336.65625 333.242188 336.140625 332.820312 335.667969 332.347656 C 335.195312 331.875 334.773438 331.359375 334.402344 330.804688 C 334.03125 330.25 333.714844 329.660156 333.460938 329.042969 C 333.203125 328.425781 333.011719 327.789062 332.882812 327.132812 C 332.75 326.476562 332.683594 325.816406 332.683594 325.148438 C 332.683594 324.476562 332.75 323.816406 332.882812 323.160156 C 333.011719 322.503906 333.203125 321.867188 333.460938 321.25 C 333.714844 320.632812 334.03125 320.046875 334.402344 319.488281 C 334.773438 318.933594 335.195312 318.417969 335.667969 317.945312 C 336.140625 317.472656 336.65625 317.050781 337.210938 316.679688 C 337.765625 316.308594 338.355469 315.996094 338.972656 315.738281 C 339.589844 315.484375 340.226562 315.289062 340.882812 315.160156 C 341.539062 315.027344 342.199219 314.964844 342.867188 314.964844 C 343.535156 314.964844 344.199219 315.027344 344.855469 315.160156 C 345.511719 315.289062 346.148438 315.484375 346.765625 315.738281 C 347.382812 315.996094 347.96875 316.308594 348.523438 316.679688 C 349.082031 317.050781 349.59375 317.472656 350.066406 317.945312 C 350.542969 318.417969 350.964844 318.933594 351.335938 319.488281 C 351.707031 320.046875 352.019531 320.632812 352.277344 321.25 C 352.53125 321.867188 352.726562 322.503906 352.855469 323.160156 C 352.984375 323.816406 353.050781 324.476562 353.050781 325.148438 Z M 353.050781 325.148438 " fill-opacity="1" fill-rule="nonzero"/><g clip-path="url(#id1)"><path fill="#5046dc" d="M 521.066406 411.707031 L 521.066406 314.964844 C 521.066406 292.558594 502.734375 274.230469 480.335938 274.230469 L 205.402344 274.230469 C 183 274.230469 164.671875 292.558594 164.671875 314.964844 L 164.671875 411.707031 L 185.035156 411.707031 L 185.035156 314.964844 C 185.035156 303.761719 194.199219 294.597656 205.402344 294.597656 L 480.335938 294.597656 C 491.535156 294.597656 500.699219 303.761719 500.699219 314.964844 L 500.699219 411.707031 Z M 521.066406 411.707031 " fill-opacity="1" fill-rule="nonzero"/></g><g clip-path="url(#id2)"><path fill="#5046dc" d="M 164.671875 778.3125 L 164.671875 885.238281 C 164.671875 907.644531 183 925.972656 205.402344 925.972656 L 480.335938 925.972656 C 502.734375 925.972656 521.066406 907.644531 521.066406 885.238281 L 521.066406 778.3125 L 500.699219 778.3125 L 500.699219 885.238281 C 500.699219 896.441406 491.535156 905.605469 480.335938 905.605469 L 205.402344 905.605469 C 194.199219 905.605469 185.035156 896.441406 185.035156 885.238281 L 185.035156 778.3125 Z M 164.671875 778.3125 " fill-opacity="1" fill-rule="nonzero"/></g><g clip-path="url(#id3)"><path fill="#5046dc" d="M 78.117188 462.625 L 78.117188 727.394531 C 78.117188 744.199219 91.863281 757.945312 108.667969 757.945312 L 577.070312 757.945312 C 593.871094 757.945312 607.617188 744.199219 607.617188 727.394531 L 607.617188 462.625 C 607.617188 445.820312 593.871094 432.074219 577.070312 432.074219 L 108.667969 432.074219 C 91.863281 432.074219 78.117188 445.820312 78.117188 462.625 Z M 587.253906 462.625 L 587.253906 727.394531 C 587.253906 732.996094 582.671875 737.578125 577.070312 737.578125 L 108.667969 737.578125 C 103.066406 737.578125 98.484375 732.996094 98.484375 727.394531 L 98.484375 462.625 C 98.484375 457.023438 103.066406 452.441406 108.667969 452.441406 L 577.070312 452.441406 C 582.671875 452.441406 587.253906 457.023438 587.253906 462.625 Z M 587.253906 462.625 " fill-opacity="1" fill-rule="nonzero"/></g><path fill="#5046dc" d="M 139.214844 574.644531 L 230.859375 574.644531 C 242.058594 574.644531 251.222656 565.476562 251.222656 554.277344 L 251.222656 493.175781 C 251.222656 481.972656 242.058594 472.808594 230.859375 472.808594 L 139.214844 472.808594 C 128.011719 472.808594 118.847656 481.972656 118.847656 493.175781 L 118.847656 554.277344 C 118.847656 565.476562 128.011719 574.644531 139.214844 574.644531 Z M 195.21875 493.175781 L 230.859375 493.175781 L 230.859375 513.542969 L 195.21875 513.542969 Z M 195.21875 533.910156 L 230.859375 533.910156 L 230.859375 554.277344 L 195.21875 554.277344 Z M 139.214844 493.175781 L 174.855469 493.175781 L 174.855469 513.542969 L 139.214844 513.542969 Z M 139.214844 533.910156 L 174.855469 533.910156 L 174.855469 554.277344 L 139.214844 554.277344 Z M 139.214844 533.910156 " fill-opacity="1" fill-rule="nonzero"/><path fill="#5046dc" d="M 444.695312 717.210938 C 511.902344 717.210938 566.886719 662.222656 566.886719 595.007812 C 566.886719 527.796875 511.902344 472.808594 444.695312 472.808594 C 377.488281 472.808594 322.503906 527.796875 322.503906 595.007812 C 322.503906 662.222656 377.488281 717.210938 444.695312 717.210938 Z M 444.695312 493.175781 C 500.699219 493.175781 546.523438 539 546.523438 595.007812 C 546.523438 651.019531 500.699219 696.84375 444.695312 696.84375 C 388.691406 696.84375 342.867188 651.019531 342.867188 595.007812 C 342.867188 539 388.691406 493.175781 444.695312 493.175781 Z M 444.695312 493.175781 " fill-opacity="1" fill-rule="nonzero"/><path fill="#5046dc" d="M 441.132812 601.628906 C 450.296875 604.175781 459.460938 606.722656 463.023438 612.320312 C 465.570312 616.394531 465.570312 620.976562 463.53125 624.542969 C 458.949219 631.160156 447.242188 632.6875 438.585938 631.160156 C 435.019531 630.652344 431.457031 629.125 428.402344 626.578125 C 423.820312 623.015625 417.710938 624.03125 414.148438 628.617188 C 410.582031 633.199219 411.601562 639.308594 416.183594 642.871094 C 421.785156 646.945312 428.402344 650 435.019531 651.019531 C 435.019531 651.019531 435.019531 651.019531 435.53125 651.019531 L 435.53125 661.203125 C 435.53125 666.804688 440.113281 671.386719 445.714844 671.386719 C 451.3125 671.386719 455.894531 666.804688 455.894531 661.203125 L 455.894531 651.019531 C 465.570312 649.492188 474.734375 644.910156 480.84375 636.253906 C 487.972656 626.070312 487.972656 612.320312 480.84375 601.121094 C 473.207031 588.898438 459.460938 585.335938 447.242188 581.769531 C 435.019531 578.714844 427.894531 576.171875 425.347656 569.550781 C 423.3125 563.441406 429.929688 558.859375 433.492188 557.332031 C 441.640625 554.277344 452.332031 555.292969 460.476562 559.875 C 465.058594 562.929688 471.679688 561.402344 474.226562 556.3125 C 476.769531 551.21875 475.753906 545.109375 470.660156 542.566406 C 467.097656 540.527344 463.53125 539 459.96875 537.472656 L 459.96875 528.816406 C 459.96875 523.214844 455.386719 518.632812 449.785156 518.632812 C 444.1875 518.632812 439.605469 523.214844 439.605469 528.816406 L 439.605469 535.945312 C 435.019531 536.453125 430.4375 537.472656 425.855469 539 C 409.054688 545.621094 400.910156 561.402344 406 576.679688 C 411.09375 593.480469 427.894531 598.066406 441.132812 601.628906 Z M 441.132812 601.628906 " fill-opacity="1" fill-rule="nonzero"/><path fill="#5046dc" d="M 134.121094 615.375 L 195.21875 615.375 C 200.820312 615.375 205.402344 610.792969 205.402344 605.191406 C 205.402344 599.59375 200.820312 595.007812 195.21875 595.007812 L 134.121094 595.007812 C 128.523438 595.007812 123.941406 599.59375 123.941406 605.191406 C 123.941406 610.792969 128.523438 615.375 134.121094 615.375 Z M 134.121094 615.375 " fill-opacity="1" fill-rule="nonzero"/><path fill="#5046dc" d="M 134.121094 656.109375 L 225.765625 656.109375 C 231.367188 656.109375 235.949219 651.527344 235.949219 645.925781 C 235.949219 640.328125 231.367188 635.742188 225.765625 635.742188 L 134.121094 635.742188 C 128.523438 635.742188 123.941406 640.328125 123.941406 645.925781 C 123.941406 651.527344 128.523438 656.109375 134.121094 656.109375 Z M 134.121094 656.109375 " fill-opacity="1" fill-rule="nonzero"/><path fill="#5046dc" d="M 123.941406 686.660156 C 123.941406 692.261719 128.523438 696.84375 134.121094 696.84375 L 276.679688 696.84375 C 282.28125 696.84375 286.863281 692.261719 286.863281 686.660156 C 286.863281 681.058594 282.28125 676.476562 276.679688 676.476562 L 134.121094 676.476562 C 128.523438 676.476562 123.941406 681.058594 123.941406 686.660156 Z M 123.941406 686.660156 " fill-opacity="1" fill-rule="nonzero"/></svg>